HIERARCHY
ROOT Hips
{
  OFFSET -35.2597 29.1586 114.425
  CHANNELS 6 Xposition Yposition Zposition Zrotation Xrotation Yrotation
  JOINT LeftUpLeg
  {
    OFFSET 8.64259 1.95398 -2.38835
    CHANNELS 3 Zrotation Xrotation Yrotation
    JOINT LeftLeg
    {
      OFFSET 43.7702 0 0
      CHANNELS 3 Zrotation Xrotation Yrotation
      JOINT LeftFoot
      {
        OFFSET 40.6238 0 0
        CHANNELS 3 Zrotation Xrotation Yrotation
        JOINT LeftToeBase
        {
          OFFSET 12.7242 0 0
          CHANNELS 3 Zrotation Xrotation Yrotation
          End Site
          {
            OFFSET 0 0 0
          }
        }
      }
    }
  }
  JOINT RightUpLeg
  {
    OFFSET -8.2249 1.95398 -2.59336
    CHANNELS 3 Zrotation Xrotation Yrotation
    JOINT RightLeg
    {
      OFFSET 43.5653 0 0
      CHANNELS 3 Zrotation Xrotation Yrotation
      JOINT RightFoot
      {
        OFFSET 40.6238 0 0
        CHANNELS 3 Zrotation Xrotation Yrotation
        JOINT RightToeBase
        {
          OFFSET 12.7242 0 0
          CHANNELS 3 Zrotation Xrotation Yrotation
          End Site
          {
            OFFSET 0 0 0
          }
        }
      }
    }
  }
  JOINT Spine
  {
    OFFSET 0.165834 0.87714 6.61349
    CHANNELS 3 Zrotation Xrotation Yrotation
    JOINT Spine1
    {
      OFFSET 7.38963 1.71661e-005 0
      CHANNELS 3 Zrotation Xrotation Yrotation
      JOINT Spine2
      {
        OFFSET 11.9445 1.14441e-005 0
        CHANNELS 3 Zrotation Xrotation Yrotation
        JOINT Spine3
        {
          OFFSET 14.7254 4.19617e-005 0
          CHANNELS 3 Zrotation Xrotation Yrotation
          JOINT Spine4
          {
            OFFSET 10.9679 0 0
            CHANNELS 3 Zrotation Xrotation Yrotation
            JOINT RightShoulder
            {
              OFFSET 2.46616 -1.6653 3.69651
              CHANNELS 3 Zrotation Xrotation Yrotation
              JOINT RightArm
              {
                OFFSET 13.0012 0 0
                CHANNELS 3 Zrotation Xrotation Yrotation
                JOINT RightForeArm
                {
                  OFFSET 28.7848 1.62311e-005 0
                  CHANNELS 3 Zrotation Xrotation Yrotation
                  JOINT RightHand
                  {
                    OFFSET 26.5688 1.62095e-005 0
                    CHANNELS 3 Zrotation Xrotation Yrotation
                    End Site
                    {
                      OFFSET 0 0 0
                    }
                  }
                }
              }
            }
            JOINT LeftShoulder
            {
              OFFSET 2.38034 -1.29275 -3.7523
              CHANNELS 3 Zrotation Xrotation Yrotation
              JOINT LeftArm
              {
                OFFSET 16.3182 6.07031e-005 0
                CHANNELS 3 Zrotation Xrotation Yrotation
                JOINT LeftForeArm
                {
                  OFFSET 27.0901 0 0
                  CHANNELS 3 Zrotation Xrotation Yrotation
                  JOINT LeftHand
                  {
                    OFFSET 24.5451 1.51738e-005 0
                    CHANNELS 3 Zrotation Xrotation Yrotation
                    End Site
                    {
                      OFFSET 0 0 0
                    }
                  }
                }
              }
            }
            JOINT Neck
            {
              OFFSET 5.0226 -0.0266342 0
              CHANNELS 3 Zrotation Xrotation Yrotation
              JOINT Head
              {
                OFFSET 6.69364 2.86102e-005 0
                CHANNELS 3 Zrotation Xrotation Yrotation
                End Site
                {
                  OFFSET 0 0 0
                }
              }
            }
          }
        }
      }
    }
  }
}
MOTION
Frames:	17
Frame Time:	0.0416667
69.2871 99.6183 -40.2366 102.133 45.2213 84.3768 -174.616 -4.76324 87.3528 -22.2748 14.3596 -0.288053 79.6218 12.595 -1.34783 9.636 -16.0826 7.38949 -179.787 15.587 94.0225 -28.0569 -11.4433 -2.73897 65.889 -4.77674 -2.87278 20.6857 1.9349 4.14057 -0.361395 8.12073 -90.3629 10.6296 -0.88659 -0.640902 -1.04113 -0.913949 -0.601262 -23.5765 -0.653 -0.877722 -3.56386 -0.652998 -0.877731 86.5464 -36.0826 -110.862 32.6284 6.64591 -15.0976 -2.90984 0.499924 -34.382 -3.50397 0.837084 -38.4548 -87.6649 -53.2748 82.7842 -30.0632 1.62246 -5.54386 -19.4775 -14.3702 -61.2444 4.83127 -0.482659 -10.5932 -2.16947 1.61974 -9.74973 -4.16022 2.70287 3.0624 
72.5269 99.1672 -43.23 102.39 47.2912 83.8892 -173.774 -8.62553 88.4197 -20.4688 17.4925 -0.408765 81.8239 14.5674 -1.23877 12.5607 -15.9972 9.95678 179.977 15.3517 94.6615 -15.7227 -13.2307 -1.84186 64.521 -4.05813 -2.68986 21.9506 1.38451 4.27458 -0.585385 8.18629 -90.3146 10.4985 -1.31039 -0.508543 -1.17181 -1.3315 -0.450365 -23.7102 -1.09698 -0.878889 -3.69753 -1.09697 -0.878886 86.9262 -36.2632 -110.11 32.2966 6.90368 -12.8997 -2.56206 0.924696 -37.5438 -4.66005 1.12643 -36.6117 -87.7529 -52.753 82.5697 -30.9255 0.393741 -14.6154 -13.506 -16.1126 -48.2963 -6.61788 0.435407 -20.3376 -1.72651 1.37859 -11.122 -3.74443 2.6832 3.00342 
75.9476 98.3285 -46.6242 102.726 47.8287 83.8349 -172.394 -12.8542 89.9894 -18.6695 19.0985 -0.785836 84.1093 16.3148 -1.32355 11.9223 -15.8763 9.20313 179.069 15.2364 96.0456 -7.02292 -9.06905 0.468255 63.2721 -2.86259 -1.02679 25.1504 0.554118 2.99924 -0.650438 8.24555 -90.2959 10.3801 -1.43128 -0.462799 -1.29008 -1.45027 -0.399359 -23.8295 -1.22601 -0.87161 -3.81686 -1.22602 -0.871614 87.0422 -36.4493 -109.83 31.9485 7.20066 -11.501 -1.66739 2.01997 -39.7268 -2.92302 0.607432 -35.764 -87.7675 -52.8936 82.572 -30.6891 1.13075 -13.7757 -14.5677 -15.5454 -51.414 -3.51032 0.0672532 -17.6941 -1.98664 1.31482 -12.1206 -3.04041 2.72714 3.47353 
79.6308 97.038 -50.2866 103.016 47.6576 83.914 -171.101 -16.8969 91.2778 -18.1044 18.4802 -1.0143 87.1752 17.9221 -2.45369 13.9775 -15.5331 10.7186 179.081 16.6456 97.8623 -7.03968 -4.94963 1.84423 64.7694 -3.48911 -1.12157 27.1127 0.105904 1.94166 -0.664707 8.27356 -90.3276 10.3237 -1.47411 -0.523071 -1.34651 -1.49571 -0.457682 -23.886 -1.24877 -0.941974 -3.87336 -1.24876 -0.941966 86.9192 -36.7059 -109.95 31.6582 7.29455 -8.53985 -1.26202 2.1165 -44.617 -5.45764 1.09041 -31.461 -87.8827 -53.1077 82.4406 -30.5768 1.47566 -12.7997 -15.392 -15.2602 -53.4003 -2.35638 -0.0937639 -16.1687 -1.95495 1.37514 -11.8368 -2.9733 2.75602 3.56003 
83.1775 96.1091 -54.7889 102.508 49.6496 83.7576 -170.874 -20.326 91.4601 -17.2302 21.8112 -0.575954 84.9619 18.2858 1.38176 18.4387 -12.7221 11.2633 178.44 17.7856 97.7481 -11.0365 -6.24623 2.28054 63.1399 -2.41271 -1.09764 24.3074 0.962668 2.80151 -0.903787 8.18873 -90.3181 10.4933 -1.94617 -0.459254 -1.17621 -1.96453 -0.373114 -23.7203 -1.71816 -1.02307 -3.70767 -1.71818 -1.02307 87.6216 -36.6495 -108.718 31.7395 7.40495 -11.342 -1.7891 1.8161 -40.2794 -1.8714 0.337295 -37.5814 -87.8831 -52.8121 82.3902 -30.7107 1.79222 -12.3832 -15.8182 -15.3468 -53.9611 -2.75274 -0.0528022 -15.6989 -0.861718 1.2979 -11.1065 -3.71003 2.67951 3.20371 
86.9261 95.9046 -59.2232 102.128 51.484 83.5892 -171.216 -21.9332 91.6317 -18.891 21.138 0.694294 80.4824 15.0803 0.795675 25.9435 -6.52782 9.41031 178.043 22.2092 97.7996 -22.5183 -9.25947 1.65013 61.9394 0.326928 -2.1817 19.9511 2.21064 4.19633 -1.07318 8.08042 -90.3327 10.7098 -2.29044 -0.451427 -0.959129 -2.30808 -0.350149 -23.5073 -2.04883 -1.11919 -3.49463 -2.04884 -1.11919 87.601 -36.9293 -108.651 31.4309 7.89347 -9.35594 -2.8844 0.367158 -41.8189 -1.73911 0.301261 -37.6671 -87.9917 -53.501 82.3492 -30.3484 0.917253 -12.5823 -16.2785 -16.0507 -53.422 -6.38956 0.242499 -13.9713 -0.28456 1.12918 -9.91382 -4.13193 2.41687 2.24158 
90.5199 96.0471 -63.8431 101.812 52.1121 83.1028 -172.349 -18.538 90.5844 -28.6503 21.8811 1.61368 70.6304 7.87596 1.8877 38.7371 1.90506 7.53878 177.345 22.9156 97.2209 -29.6884 -10.0257 1.54377 62.2758 0.10509 -1.65176 15.4673 3.84335 4.60372 -1.01336 7.97422 -90.3466 10.922 -2.17786 -0.483925 -0.74722 -2.19705 -0.387571 -23.2937 -1.93171 -1.11629 -3.28104 -1.93171 -1.1163 88.2563 -36.0953 -107.782 31.8366 7.84407 -10.5567 -3.91409 -1.00017 -37.7027 -1.16338 0.114261 -40.7521 -88.0881 -54.2373 82.3356 -31.2447 1.78191 -12.2843 -13.9214 -14.7008 -51.8528 -3.46944 0.0287924 -16.3518 -0.155864 0.622548 -8.14784 -4.05758 1.70675 1.42739 
93.7959 96.4743 -68.0171 101.969 51.7185 82.8463 -172.16 -11.7424 91.1282 -42.3063 26.4418 1.82971 60.2551 0.107876 1.1171 24.4231 -5.31457 5.32704 176.782 21.3524 97.3081 -34.073 -10.7523 1.46469 65.6876 -2.66046 -2.0837 15.7424 3.82509 4.38986 -0.774598 7.90593 -90.3982 11.0577 -1.72662 -0.62614 -0.612197 -1.7525 -0.549526 -23.1532 -1.4586 -1.11618 -3.14052 -1.45861 -1.11619 88.8868 -35.1818 -106.965 34.1649 5.7193 -4.24223 -10.6467 -7.58081 -44.4987 4.15667 -3.53021 -36.8024 -88.5201 -54.3676 81.7396 -31.636 2.07547 -11.4253 -13.3466 -14.2508 -51.6745 -2.37191 -0.089695 -16.7041 -0.907506 0.146424 -6.35045 -3.94979 0.958817 0.90534 
96.7822 96.7032 -71.4467 102.307 51.9 83.1673 -171.5 -2.83239 93.4355 -54.2535 27.706 2.07103 51.3845 -5.99736 -2.19441 17.3882 -9.53503 5.53886 175.926 18.9436 97.7449 -36.1674 -10.883 2.06807 68.7707 -4.82467 -2.29227 17.2307 3.19003 4.4656 -0.550679 7.88223 -90.4879 11.1042 -1.32252 -0.842753 -0.56632 -1.35834 -0.783721 -23.1028 -1.0081 -1.20126 -3.09011 -1.0081 -1.20126 89.5848 -34.9011 -105.778 24.2248 12.3247 -52.5065 176.082 0.501099 179.998 -54.1926 35.252 -69.4915 -88.7109 -54.3797 81.469 -31.58 2.04376 -10.4499 -13.1228 -13.6888 -52.4335 -2.66655 -0.0626854 -15.1861 -1.87589 -0.410933 -4.63161 -3.70913 0.172917 -0.392989 
99.6704 97.3977 -74.8711 103.461 52.7747 81.761 -172.05 4.33883 93.0407 -62.32 20.6114 2.34063 60.0268 0.00808696 0.129076 14.1577 -12.4076 6.66694 175.607 14.6989 97.2063 -35.3789 -10.8273 2.05233 71.1077 -6.59931 -2.8818 18.74 2.78894 3.95153 -0.593973 8.00398 -90.4197 10.8619 -1.37652 -0.705654 -0.808476 -1.40624 -0.644397 -23.3462 -1.10081 -1.08675 -3.33352 -1.10082 -1.08675 87.5025 -35.3489 -109.431 32.9201 7.55918 -26.5175 -1.49386 7.32508 -11.5644 0.259343 -1.10323 -55.2571 -88.3591 -54.322 81.9621 -31.1833 1.58116 -11.565 -13.611 -14.2894 -52.1049 -0.656573 -0.27718 -16.6443 -3.20582 -0.0632361 -5.02443 -2.51689 0.486032 0.889117 
102.453 98.4876 -78.1554 103.922 52.5875 80.5448 -172.688 10.4483 91.9251 -62.608 11.9442 2.12317 67.6549 5.65699 1.82222 11.0932 -12.9341 4.63066 175.814 9.84103 96.4389 -32.4432 -10.9318 1.49593 72.2846 -7.41611 -2.7881 19.5463 2.54792 3.73635 -0.413034 8.04477 -90.2996 10.7818 -0.960662 -0.507073 -0.888914 -0.982042 -0.464307 -23.4252 -0.763849 -0.772358 -3.41257 -0.763852 -0.772352 87.3605 -35.7165 -109.543 32.8442 6.64759 -9.28411 -1.7751 1.84427 -40.0894 -5.30514 1.35329 -37.5974 -87.8656 -54.6583 82.721 -30.4604 0.279984 -12.5821 -12.3189 -13.8034 -50.5704 -4.89749 0.260634 -17.2447 -4.14999 -0.254681 -4.7458 -2.4945 0.232485 0.771186 
105.111 99.5981 -81.4527 103.948 51.2046 79.3741 -173.637 14.6061 90.0932 -56.5366 5.16581 1.55935 70.1846 7.74213 3.03397 8.4776 -14.8117 4.79555 175.892 4.80081 95.2755 -28.8855 -12.1094 0.56721 72.8927 -7.70672 -2.43108 19.57 2.58425 3.61794 -0.17945 8.08477 -90.1658 10.7041 -0.433817 -0.289813 -0.966834 -0.446149 -0.270447 -23.5021 -0.32665 -0.40679 -3.48948 -0.326665 -0.406792 87.0584 -35.347 -110.235 31.9395 7.72577 -13.9288 -5.23764 -3.34691 -33.5295 -3.46906 0.90121 -42.0229 -87.6726 -55.4386 83.1235 -29.7507 -0.543917 -10.1624 -14.5994 -14.4446 -53.6401 -4.74997 0.182613 -15.7985 -5.09392 -0.352962 -3.4672 -2.31053 -0.0213292 0.116388 
107.805 100.123 -84.8141 103.716 49.2809 78.9019 -174.782 17.0006 89.0042 -46.1237 1.84359 0.902002 69.9041 7.75338 2.48717 9.39065 -13.8958 4.41577 176.146 0.146964 94.6402 -26.0256 -13.6397 -0.510857 73.7062 -8.13414 -2.73042 20.1992 2.33034 3.61446 0.102377 8.14717 -90.0515 10.5796 0.18022 -0.11856 -1.09132 0.174819 -0.126383 -23.6266 0.207529 -0.0589163 -3.61391 0.207519 -0.0589217 87.1502 -35.1498 -110.148 32.2637 7.18639 -14.4614 -6.20669 -4.8133 -34.3973 -3.11223 0.794549 -41.5882 -87.099 -55.9489 84.0109 -30.8353 0.797204 -11.9432 -18.7327 -18.8033 -52.689 -1.28569 -0.226778 -18.661 -4.63011 -0.359579 -2.28275 -2.79116 -0.125293 -0.337532 
110.497 100.116 -88.4356 103.189 47.2673 79.0132 -175.998 17.2937 88.4857 -31.9304 3.71037 0.286592 68.294 7.19705 1.1571 11.3325 -13.6341 5.76203 175.773 -3.55056 93.5855 -24.8387 -15.7795 -1.11424 75.2952 -9.00102 -2.57898 20.4886 2.10139 3.90591 0.391008 8.21658 -90.019 10.4412 0.770241 -0.105877 -1.22955 0.764829 -0.139681 -23.7665 0.766459 0.130525 -3.75384 0.766448 0.130519 87.0392 -33.4639 -111.041 33.1268 5.88969 -14.9269 -5.5951 -3.65165 -35.6575 -4.90217 1.30229 -39.5998 -87.1648 -56.1044 83.9419 -32.6758 2.72538 -18.2238 -21.0231 -25.302 -47.5365 4.66691 -1.18392 -22.2084 -4.10178 0.165775 -0.571496 -2.86616 0.223603 0.027977 
113.119 99.6947 -92.2932 101.784 45.6889 80.1206 -176.977 16.0781 88.1889 -14.236 4.936 -0.311824 64.0555 5.20659 -1.85099 16.7051 -12.3856 9.06484 174.98 -6.36581 92.521 -24.0232 -18.1385 -1.29027 76.9381 -10.3342 -3.17329 21.331 1.92716 3.47268 0.650061 8.20332 -90.0709 10.4692 1.26241 -0.252801 -1.20118 1.25005 -0.308122 -23.7413 1.28002 0.138359 -3.72864 1.28 0.138355 87.304 -32.145 -111.108 33.4347 5.08276 -15.0425 -5.82175 -3.71467 -37.7182 -5.70991 1.45969 -37.6216 -87.2924 -58.2761 84.0818 -30.9955 1.63894 -16.7794 -23.4639 -24.0048 -52.2701 10.7526 -1.92953 -20.4138 -3.42278 0.307647 2.22382 -2.79303 0.08086 -1.43683 
115.999 98.8916 -96.3775 101.065 44.525 81.0073 -177.205 18.2138 87.9954 -7.79407 2.36251 -1.20561 64.8243 4.45569 -2.52366 19.8131 -9.89827 8.44412 174.386 -9.96979 91.7584 -22.9093 -19.6504 -1.56557 78.677 -11.7683 -3.78121 22.0996 1.40131 4.0665 0.833321 8.19191 -90.1108 10.4934 1.6091 -0.363119 -1.17665 1.59156 -0.433613 -23.7198 1.64381 0.137402 -3.70714 1.64381 0.137403 87.1063 -31.7999 -111.632 33.2618 4.92515 -15.9357 -5.5905 -3.31059 -38.3586 -3.79737 0.876276 -36.7997 -86.9395 -59.6863 84.7634 -28.656 -0.873594 -13.1331 -22.6082 -19.3915 -57.1002 12.038 -1.97144 -19.1314 -3.42704 0.272072 3.21075 -2.23866 -0.065699 -1.64035 
119.247 97.8294 -100.736 100.006 43.7455 81.4597 -177.364 20.5921 86.8871 -7.33822 -0.259136 -1.87851 67.2235 5.02484 -0.639152 20.7725 -10.0897 9.72927 173.332 -12.8072 90.271 -23.0493 -20.5629 -1.82847 80.4787 -13.3028 -4.29019 23.4984 0.792477 4.23607 0.942009 8.09982 -90.0676 10.6778 1.84488 -0.302735 -0.991914 1.82979 -0.38367 -23.5375 1.85056 0.265919 -3.52484 1.85057 0.265924 86.936 -31.9878 -111.872 33.3625 4.49207 -17.014 -4.72295 -2.09766 -38.4888 -1.63252 0.256509 -36.4141 -87.0434 -60.3517 84.7141 -26.3604 -4.90502 -9.14944 -18.3705 -14.8844 -58.7789 2.2795 -0.714153 -19.6325 -3.58922 0.362878 3.76508 -2.14525 -0.0312822 -1.79807 
